# xmcd CD database file
#
# Track frame offsets:
#	150
#	18793
#	41377
#	60833
#	79254
#	101422
#	119000
#	136471
#	150993
#	165099
#	181709
#	196350
#	218400
#	232961
#	244601
#	257586
#	280057
#
# Disc length: 3951 seconds
#
# Revision: 0
# Processed by: cddbd v1.5.2PL0 Copyright (c) Steve Scherf et al.
# Submitted via: CDex 1.70beta1
#
DISCID=c50f6d11
DTITLE=La Cigale - The Black Keys
DYEAR=2007
DGENRE=Blues
TTITLE0=Just Got to Be
TTITLE1=Girl is on my Mind
TTITLE2=The Breaks
TTITLE3=Stack Shot Billy
TTITLE4=Busted
TTITLE5=You're the One
TTITLE6=Elevator
TTITLE7=10 Am Automatic
TTITLE8=Your Touch
TTITLE9=Set You Free
TTITLE10=Grown So Ugly
TTITLE11=No Trust
TTITLE12=Have Love Will Travel
TTITLE13=Encore Break
TTITLE14=Strange Desire
TTITLE15=The Flame
TTITLE16=Till I Get my Way
EXTD=YEAR: 2007
EXTT0=
EXTT1=
EXTT2=
EXTT3=
EXTT4=
EXTT5=
EXTT6=
EXTT7=
EXTT8=
EXTT9=
EXTT10=
EXTT11=
EXTT12=
EXTT13=
EXTT14=
EXTT15=
EXTT16=
PLAYORDER=
